<svg xmlns="http://www.w3.org/2000/svg" width="344.376" height="89.173" viewBox="0 0 344.376 89.173" style="">
  <path id="Path_1" data-name="Path 1" d="M1.56-14.28V71.96H8.355v-39.5h23.46V22.8H8.355V-4.617h26.75V-14.28ZM83.384,40.8V-14.28H76.589V40.8q0,11.6-3.4,17.574t-9.906,5.979a11.624,11.624,0,0,1-10.514-5.979Q49.124,52.393,49.124,40.8V-14.28H42.329V40.8q0,17.272,5.543,25.184a17.776,17.776,0,0,0,15.414,7.911,16.61,16.61,0,0,0,14.877-8.274Q83.384,57.345,83.384,40.8Zm6.866,21.5V71.96h40.626V62.3H98.333L130.018-4.617V-14.28H92.682v9.663h29.325ZM138.244-14.28V71.96h6.795V-14.28Zm18.239,0V71.96h6.795v-39.5h26.893v39.5h6.795V-14.28h-6.795V22.8H163.277V-14.28Zm60.438,50.609,8.654-40.221h.143l8.511,40.221ZM222-14.28,202.115,71.96h6.938l5.722-25.969h21.6l5.579,25.969h7.51L229.509-14.28Zm32.472,0V71.96h6.795V35.121H277.86a6,6,0,0,1,4.005,1.268,9.159,9.159,0,0,1,2.432,3.382,19.57,19.57,0,0,1,1.359,4.952q.429,2.838.715,5.979.358,3.14.429,6.4t.143,6.1q.072,2.838.322,5.133a10.043,10.043,0,0,0,.966,3.624h7.582a19.465,19.465,0,0,1-1.609-5.013q-.536-2.838-.823-5.979t-.358-6.4q-.072-3.261-.215-6.4-.215-3.14-.608-6.039a26.922,26.922,0,0,0-1.216-5.254,13.053,13.053,0,0,0-2.217-4.046,7.646,7.646,0,0,0-3.612-2.416v-.242q4.649-2.174,6.759-8.093a40.961,40.961,0,0,0,2.11-13.769q0-10.508-4.113-16.547A13.057,13.057,0,0,0,278.5-14.28Zm20.957,39.738H261.266V-4.617h16.88a7.267,7.267,0,0,1,6.938,4.107,22.92,22.92,0,0,1,2.146,10.629,25.263,25.263,0,0,1-.966,7.67,12.677,12.677,0,0,1-2.575,4.711,7.969,7.969,0,0,1-3.755,2.355A16.555,16.555,0,0,1,275.428,25.458Zm36.835,10.871,8.655-40.221h.143l8.511,40.221Zm5.078-50.609L297.457,71.96H304.4l5.722-25.969h21.6L337.3,71.96h7.51L324.851-14.28Z" transform="translate(-1.06 14.78)" fill="none" stroke="#707070" stroke-width="1" class="AYumcGzc_0"></path>
<style data-made-with="vivus-instant">.AYumcGzc_0{stroke-dasharray:2759 2761;stroke-dashoffset:2760;animation:AYumcGzc_draw 6666ms linear 0ms forwards;}@keyframes AYumcGzc_draw{100%{stroke-dashoffset:0;}}@keyframes AYumcGzc_fade{0%{stroke-opacity:1;}97.1830985915493%{stroke-opacity:1;}100%{stroke-opacity:0;}}</style></svg>
